<svg xmlns="http://www.w3.org/2000/svg" viewBox="0 0 240 240"><rect width="240" height="240" rx="36" fill="#e7e1ee"/><circle cx="120" cy="172" r="86" fill="#d4c7df"/><path d="M61 91 52 32l53 33m74 26 9-59-53 33" fill="#a69bb0"/><path d="m65 76-5-29 29 23m86 6 5-29-29 23" fill="#d9aea9"/><ellipse cx="120" cy="120" rx="66" ry="62" fill="#b9adc3"/><path d="M96 61l10 23m14-25v25m24-23-10 23" fill="none" stroke="#8a7b97" stroke-width="7" stroke-linecap="round"/><ellipse cx="92" cy="113" rx="7" ry="10" fill="#3c3542"/><ellipse cx="148" cy="113" rx="7" ry="10" fill="#3c3542"/><ellipse cx="120" cy="146" rx="30" ry="22" fill="#f5f0f7"/><path d="m111 135 9 9 9-9z" fill="#c6878d"/><path d="M120 144v10m0 0q-12 8-18-2m18 2q12 8 18-2M78 136l-30-6m30 18-32 5m116-17 30-6m-30 18 32 5" fill="none" stroke="#73667d" stroke-width="3" stroke-linecap="round"/><path d="M83 186q37 18 74 0" fill="none" stroke="#7f9683" stroke-width="10"/><circle cx="120" cy="197" r="9" fill="#e4bc6d"/></svg>
